<svg width="42" height="44" viewBox="0 0 42 44" fill="none" xmlns="http://www.w3.org/2000/svg">
<path d="M6.53316 21.1396L2.61361 25.377L4.29339 27.1931L2.05347 29.6145L13.8122 42.3267L16.0521 39.9051L17.7319 41.7212L21.6515 37.4838L6.53316 21.1396Z" fill="black"/>
<path d="M28.0513 1.50879L25.8115 3.93033L24.1316 2.11435L20.212 6.3517L35.3303 22.6958L39.25 18.4585L37.5701 16.6425L39.81 14.2209L28.0513 1.50879Z" fill="black"/>
<path d="M32.807 3.02625L35.6063 -6.65447e-06L41.2048 6.05244L38.4055 9.07869L32.807 3.02625Z" fill="black"/>
<path d="M0.650024 37.7831L3.44931 34.7569L9.04782 40.8093L6.24853 43.8356L0.650024 37.7831Z" fill="black"/>
<path d="M12.9692 24.4688L23.2871 13.3143L28.8856 19.3667L18.5677 30.5212L12.9692 24.4688Z" fill="black"/>
</svg>
